#!OML:ASF X:\für Bonn\!DataBase\2005_08_11_Bastian_Final\c3d\Bastian.ASF
:FULLY-SPECIFIED
:DEGREES
208
root 1.27432 18.2036 -14.3716 174.793 -12.6213 -179.276
lowerback 17.8599 -1.29754 -0.645149
upperback 7.78026 -3.03889 -0.921819
thorax -1.69416 -2.01414 -0.0184801
lowerneck -14.7234 -4.89353 -4.59501
upperneck -5.23203 -6.82771 10.9414
head 1.34887 -3.54602 3.66676
rclavicle -2.52457e-014 -7.55382e-015
rhumerus -42.4928 26.9801 -105.523
rradius 98.1862
rwrist 8.30063
rhand -21.9791 13.3443
rfingers 7.12502
rthumb 4.42894 -16.5894
lclavicle -2.52457e-014 -7.55382e-015
lhumerus -30.1481 -36.8142 102.036
lradius 104.86
lwrist 47.1527
lhand -8.34674 -13.7822
lfingers 7.12502
lthumb 17.5752 15.4435
rfemur 1.0244 9.21573 25.9265
rtibia 48.5118
rfoot -176.094 -180.229
rtoes -5.65942
lfemur -18.5779 -1.64868 -16.4843
ltibia 45.429
lfoot -7.03102 -1.00696
ltoes -18.571
209
root 1.33273 18.1701 -14.2211 174.826 -12.7987 -179.38
lowerback 17.8549 -1.30065 -0.631597
upperback 7.8992 -3.06037 -0.880513
thorax -1.56312 -2.03529 0.0168632
lowerneck -14.615 -4.87137 -4.75828
upperneck -5.45391 -6.7758 10.5836
head 1.38092 -3.5364 3.95376
rclavicle -4.96962e-014 -2.50469e-014
rhumerus -42.2678 27.5323 -105.415
rradius 98.0137
rwrist 8.11537
rhand -21.6945 12.9489
rfingers 7.12502
rthumb 4.70373 -16.9789
lclavicle -4.96962e-014 -2.50469e-014
lhumerus -29.6444 -36.6857 101.914
lradius 104.769
lwrist 46.7475
lhand -8.49573 -14.1104
lfingers 7.12502
lthumb 17.4318 15.128
rfemur 2.06524 8.88848 25.9263
rtibia 46.7201
rfoot -178.324 -180.437
rtoes -6.06278
lfemur -18.5619 -0.876579 -16.6984
ltibia 46.2686
lfoot -8.58908 -1.03173
ltoes -17.8767
210
root 1.39007 18.1228 -14.0697 174.84 -12.9652 -179.451
lowerback 17.8734 -1.29942 -0.603719
upperback 8.01437 -3.07378 -0.812583
thorax -1.44732 -2.05266 0.0716701
lowerneck -14.6581 -4.84235 -4.8448
upperneck -5.50444 -6.71576 10.4717
head 1.36432 -3.5066 3.93491
rclavicle -2.24627e-014 1.35174e-014
rhumerus -42.1228 28.0749 -105.245
rradius 97.9629
rwrist 7.96651
rhand -21.3907 12.5539
rfingers 7.12502
rthumb 4.99707 -17.3672
lclavicle -2.24627e-014 1.35174e-014
lhumerus -29.1488 -36.5579 101.833
lradius 104.6
lwrist 46.2293
lhand -8.52116 -14.4285
lfingers 7.12502
lthumb 17.4073 14.8121
rfemur 2.90923 8.4027 25.8774
rtibia 45.1516
rfoot -180.541 -180.593
rtoes -6.41863
lfemur -18.4787 -0.155626 -16.8682
ltibia 47.1104
lfoot -10.1007 -1.02715
ltoes -18.4558
211
root 1.44678 18.0625 -13.9184 174.855 -13.0968 -179.476
lowerback 17.8828 -1.30096 -0.552108
upperback 8.12519 -3.08619 -0.737899
thorax -1.33202 -2.06877 0.119682
lowerneck -14.6677 -4.77789 -4.82941
upperneck -5.59762 -6.62652 10.3289
head 1.31906 -3.46798 3.88843
rclavicle -4.79071e-014 9.93923e-015
rhumerus -41.9362 28.5747 -105.085
rradius 97.951
rwrist 7.9024
rhand -21.0638 12.2339
rfingers 7.12502
rthumb 5.31272 -17.6795
lclavicle -4.79071e-014 9.93923e-015
lhumerus -28.6313 -36.4552 101.697
lradius 104.405
lwrist 45.7484
lhand -8.54652 -14.5978
lfingers 7.12502
lthumb 17.3829 14.6449
rfemur 3.52017 7.81643 25.7969
rtibia 43.7864
rfoot -182.703 -180.674
rtoes -6.8087
lfemur -18.3167 0.529662 -16.9687
ltibia 47.9187
lfoot -11.5524 -0.976694
ltoes -20.1036
212
root 1.50298 17.9929 -13.7678 174.885 -13.1782 -179.505
lowerback 17.8626 -1.2957 -0.522529
upperback 8.23046 -3.0918 -0.667174
thorax -1.20657 -2.08138 0.173437
lowerneck -14.6825 -4.69589 -4.78899
upperneck -5.68652 -6.51991 10.1936
head 1.27435 -3.4213 3.84096
rclavicle 9.74045e-015 2.46493e-014
rhumerus -41.6877 29.0323 -104.939
rradius 97.9534
rwrist 7.86548
rhand -20.7382 11.9357
rfingers 7.12502
rthumb 5.62712 -17.9696
lclavicle 9.74045e-015 2.46493e-014
lhumerus -28.1368 -36.3565 101.553
lradius 104.145
lwrist 45.2616
lhand -8.51094 -14.7786
lfingers 7.12502
lthumb 17.4172 14.4611
rfemur 3.94451 7.33992 25.7418
rtibia 42.6884
rfoot -184.814 -180.835
rtoes -7.71615
lfemur -18.078 1.16496 -17.0463
ltibia 48.7658
lfoot -12.9613 -0.935535
ltoes -21.1416
213
root 1.55826 17.9173 -13.6168 174.935 -13.2399 -179.527
lowerback 17.811 -1.29301 -0.465725
upperback 8.33576 -3.09548 -0.598324
thorax -1.06611 -2.09193 0.208
lowerneck -14.6578 -4.60682 -4.753
upperneck -5.82125 -6.406 10.099
head 1.20927 -3.37386 3.81042
rclavicle 5.76476e-015 -2.0276e-014
rhumerus -41.3499 29.3608 -104.789
rradius 97.8402
rwrist 8.03384
rhand -20.4504 11.8427
rfingers 7.12502
rthumb 5.90499 -18.055
lclavicle 5.76476e-015 -2.0276e-014
lhumerus -27.6311 -36.2659 101.393
lradius 103.81
lwrist 44.8422
lhand -8.43686 -14.8642
lfingers 7.12502
lthumb 17.4885 14.3691
rfemur 4.1891 6.96822 25.7225
rtibia 41.8455
rfoot -186.871 -181.172
rtoes -8.66931
lfemur -17.8157 1.70022 -17.0988
ltibia 49.6543
lfoot -14.2378 -0.892378
ltoes -21.7058
214
root 1.61264 17.8382 -13.4673 174.975 -13.2536 -179.5
lowerback 17.7528 -1.30312 -0.383145
upperback 8.43194 -3.11035 -0.505941
thorax -0.931685 -2.1072 0.254703
lowerneck -14.6494 -4.49447 -4.74711
upperneck -5.93506 -6.25724 10.0132
head 1.15329 -3.3072 3.79087
rclavicle -6.36111e-015 3.97569e-016
rhumerus -40.9956 29.6188 -104.638
rradius 97.5477
rwrist 8.34973
rhand -20.2433 11.9838
rfingers 7.12502
rthumb 6.10491 -17.9082
lclavicle -6.36111e-015 3.97569e-016
lhumerus -27.1259 -36.1331 101.232
lradius 103.391
lwrist 44.5644
lhand -8.38106 -14.9675
lfingers 7.12502
lthumb 17.5422 14.261
rfemur 4.29822 6.71496 25.7933
rtibia 41.2371
rfoot -188.889 -181.641
rtoes -9.45382
lfemur -17.5198 2.18334 -17.0747
ltibia 50.5774
lfoot -15.3499 -0.824436
ltoes -21.8247
215
root 1.66535 17.7624 -13.3223 175.008 -13.243 -179.451
lowerback 17.6608 -1.31375 -0.243797
upperback 8.52782 -3.11637 -0.423869
thorax -0.783195 -2.11574 0.255381
lowerneck -14.5951 -4.38496 -4.7638
upperneck -6.087 -6.11065 9.97628
head 1.08019 -3.24335 3.79383
rclavicle -3.00165e-014 1.47101e-014
rhumerus -40.7394 29.8267 -104.466
rradius 97.1755
rwrist 8.70281
rhand -20.2289 12.34
rfingers 7.12502
rthumb 6.11888 -17.5516
lclavicle -3.00165e-014 1.47101e-014
lhumerus -26.647 -36.0553 101.074
lradius 102.924
lwrist 44.4407
lhand -8.31705 -14.9894
lfingers 7.12502
lthumb 17.6038 14.2337
rfemur 4.25908 6.35326 25.8183
rtibia 40.8139
rfoot -190.801 -181.957
rtoes -9.53541
lfemur -17.1614 2.60831 -17.0087
ltibia 51.4953
lfoot -16.3305 -0.7619
ltoes -21.7431
216
root 1.71721 17.6876 -13.1824 175.041 -13.1912 -179.4
lowerback 17.518 -1.3205 -0.112085
upperback 8.61842 -3.11648 -0.345692
thorax -0.613958 -2.12022 0.252901
lowerneck -14.5111 -4.28136 -4.77651
upperneck -6.20922 -5.97145 9.95997
head 1.01349 -3.18122 3.80286
rclavicle 8.94531e-015 -2.8625e-014
rhumerus -40.617 29.9767 -104.336
rradius 96.7617
rwrist 9.22394
rhand -20.2903 12.7748
rfingers 7.12502
rthumb 6.05958 -17.1185
lclavicle 8.94531e-015 -2.8625e-014
lhumerus -26.229 -36.0353 100.935
lradius 102.498
lwrist 44.4481
lhand -8.36346 -14.9917
lfingers 7.12502
lthumb 17.5591 14.2354
rfemur 4.07128 5.98682 25.8109
rtibia 40.5993
rfoot -192.652 -182.146
rtoes -8.62733
lfemur -16.737 3.05879 -16.9176
ltibia 52.428
lfoot -17.224 -0.861524
ltoes -21.6717
217
root 1.76831 17.6205 -13.046 175.062 -13.0946 -179.329
lowerback 17.3884 -1.33028 0.0617094
upperback 8.69075 -3.11266 -0.284587
thorax -0.473787 -2.11962 0.209507
lowerneck -14.3585 -4.1737 -4.80525
upperneck -6.35935 -5.82426 9.97348
head 0.927072 -3.11636 3.82729
rclavicle 2.27608e-014 -5.96354e-015
rhumerus -40.5938 30.1065 -104.25
rradius 96.4231
rwrist 9.72042
rhand -20.3776 13.1216
rfingers 7.12502
rthumb 5.9753 -16.7741
lclavicle 2.27608e-014 -5.96354e-015
lhumerus -25.8688 -36.0208 100.837
lradius 102.186
lwrist 44.5403
lhand -8.46298 -14.8398
lfingers 7.12502
lthumb 17.4633 14.3958
rfemur 3.75373 5.51921 25.7594
rtibia 40.5702
rfoot -194.327 -182.135
rtoes -7.36281
lfemur -16.2079 3.52385 -16.7794
ltibia 53.3176
lfoot -18.0304 -1.06544
ltoes -21.6338
218
root 1.81633 17.5445 -12.9031 175.085 -12.9011 -179.226
lowerback 17.336 -1.32821 0.266898
upperback 8.72467 -3.08523 -0.196573
thorax -0.414155 -2.10513 0.177779
lowerneck -14.1954 -4.07208 -4.90222
upperneck -6.47484 -5.67253 10.0053
head 0.853416 -3.04496 3.87148
rclavicle 2.47487e-014 -2.98177e-015
rhumerus -40.6053 30.2748 -104.141
rradius 96.1243
rwrist 10.1974
rhand -20.445 13.3406
rfingers 7.12502
rthumb 5.91019 -16.557
lclavicle 2.47487e-014 -2.98177e-015
lhumerus -25.5793 -36.0277 100.828
lradius 102.007
lwrist 44.7378
lhand -8.68851 -14.6735
lfingers 7.12502
lthumb 17.2463 14.5813
rfemur 3.26888 4.97462 25.6686
rtibia 40.756
rfoot -195.95 -181.92
rtoes -5.94793
lfemur -15.6923 4.07137 -16.6007
ltibia 54.2188
lfoot -18.714 -1.34507
ltoes -21.354
219
root 1.86074 17.4682 -12.7532 175.109 -12.5098 -179.107
lowerback 17.3683 -1.275 0.539452
upperback 8.73034 -2.98044 -0.1466
thorax -0.432846 -2.04881 0.0601396
lowerneck -14.0034 -3.97499 -5.00179
upperneck -6.62972 -5.53037 10.1078
head 0.765298 -2.98107 3.94141
rclavicle 3.74709e-014 -5.36719e-015
rhumerus -40.6143 30.4077 -104.106
rradius 95.9061
rwrist 10.4896
rhand -20.4014 13.3413
rfingers 7.12502
rthumb 5.95227 -16.5551
lclavicle 3.74709e-014 -5.36719e-015
lhumerus -25.3546 -36.1134 100.819
lradius 101.95
lwrist 44.9461
lhand -8.92534 -14.4886
lfingers 7.12502
lthumb 17.0183 14.7859
rfemur 2.62898 4.40772 25.527
rtibia 41.1086
rfoot -197.572 -181.469
rtoes -4.87662
lfemur -15.1279 4.69381 -16.4065
ltibia 55.0798
lfoot -19.3014 -1.57584
ltoes -20.5545
220
root 1.902 17.3942 -12.6031 175.153 -12.0448 -179.006
lowerback 17.4138 -1.21299 0.806233
upperback 8.71008 -2.86048 -0.0955125
thorax -0.484732 -1.98361 -0.0543756
lowerneck -13.8697 -3.8946 -5.15605
upperneck -6.69883 -5.40058 10.2207
head 0.718854 -2.91642 4.02328
rclavicle 1.2921e-015 -4.96962e-015
rhumerus -40.6823 30.5521 -104.109
rradius 95.7803
rwrist 10.629
rhand -20.2523 13.1662
rfingers 7.12502
rthumb 6.09629 -16.7261
lclavicle 1.2921e-015 -4.96962e-015
lhumerus -25.227 -36.1874 100.91
lradius 101.926
lwrist 45.1062
lhand -9.12187 -14.4553
lfingers 7.12502
lthumb 16.8291 14.8354
rfemur 1.86779 3.80447 25.3395
rtibia 41.6125
rfoot -199.027 -180.89
rtoes -4.20053
lfemur -14.5379 5.37634 -16.2295
ltibia 55.9152
lfoot -19.8305 -1.85781
ltoes -20.0363
221
root 1.94196 17.3176 -12.4549 175.148 -11.5332 -178.832
lowerback 17.4441 -1.1428 1.14871
upperback 8.71422 -2.72358 -0.0408311
thorax -0.503727 -1.91007 -0.212513
lowerneck -13.7315 -3.81174 -5.29522
upperneck -6.77811 -5.27158 10.3564
head 0.668258 -2.85352 4.11067
rclavicle -4.49253e-014 1.63003e-014
rhumerus -40.6674 30.6923 -104.138
rradius 95.6857
rwrist 10.4829
rhand -20.0208 12.8299
rfingers 7.12502
rthumb 6.31974 -17.0558
lclavicle -4.49253e-014 1.63003e-014
lhumerus -25.1608 -36.3445 101.029
lradius 101.95
lwrist 45.2259
lhand -9.37761 -14.5823
lfingers 7.12502
lthumb 16.5829 14.7292
rfemur 1.10842 3.20773 25.2527
rtibia 42.1756
rfoot -200.351 -180.312
rtoes -3.96102
lfemur -13.8515 6.02762 -15.957
ltibia 56.6922
lfoot -20.2969 -2.15979
ltoes -20.0177
